<?xml version="1.0" encoding="iso-8859-1"?>
<!-- Generator: Adobe Illustrator 19.0.0, SVG Export Plug-In . SVG Version: 6.00 Build 0)  -->
<svg version="1.1" id="Layer_1" xmlns="http://www.w3.org/2000/svg" xmlns:xlink="http://www.w3.org/1999/xlink" x="0px" y="0px"
	 viewBox="0 0 512 512" style="enable-background:new 0 0 512 512;" xml:space="preserve">
<ellipse transform="matrix(0.9101 -0.4144 0.4144 0.9101 -83.0678 129.1026)" style="fill:#CFF09E;" cx="256.004" cy="255.995" rx="235.991" ry="103.419"/>
<g>
	<path style="fill:#507C5C;" d="M130.953,405.608c-52.484,0-88.838-16.36-102.363-46.068
		c-13.872-30.465-1.477-69.606,34.897-110.211c33.723-37.643,84.83-73.189,143.905-100.086
		c60.692-27.634,122.362-42.853,173.652-42.853c52.485,0,88.838,16.36,102.363,46.068c13.872,30.465,1.478,69.606-34.897,110.211
		c-33.723,37.643-84.829,73.189-143.905,100.086C243.915,390.39,182.244,405.608,130.953,405.608z M381.045,134.156
		c-46.718,0-105.819,14.71-162.147,40.356c-55.662,25.344-103.511,58.495-134.731,93.344
		c-28.154,31.428-39.201,60.652-30.309,80.182c8.625,18.943,36.726,29.808,77.095,29.808c46.719,0,105.819-14.71,162.148-40.356
		c55.662-25.344,103.509-58.495,134.731-93.344c28.154-31.428,39.201-60.652,30.309-80.182
		C449.516,145.02,421.416,134.156,381.045,134.156z"/>
	<path style="fill:#507C5C;" d="M76.189,269.883c-3.745,0-7.477-1.506-10.214-4.478c-38.323-41.612-51.6-81.723-37.384-112.946
		c11.708-25.713,39.977-41.33,81.748-45.161c7.639-0.701,14.393,4.921,15.092,12.556c0.7,7.634-4.921,14.391-12.555,15.091
		c-30.824,2.828-51.784,13.134-59.017,29.018c-9.161,20.117,2.7,50.237,32.537,82.634c5.195,5.64,4.832,14.422-0.807,19.615
		C82.923,268.668,79.551,269.883,76.189,269.883z"/>
	<path style="fill:#507C5C;" d="M381.267,405.633c-11.604,0-23.977-0.8-37.057-2.424c-29.146-3.619-60.001-11.11-91.707-22.264
		c-7.232-2.545-11.033-10.47-8.489-17.702c2.543-7.231,10.467-11.035,17.701-8.489c29.835,10.496,58.741,17.528,85.917,20.903
		c57.179,7.099,99.518-3.484,110.51-27.619c8.891-19.529-2.157-48.754-30.309-80.182c-31.22-34.849-79.069-68-134.731-93.344
		c-13.413-6.105-27.083-11.655-40.633-16.492c-7.22-2.576-10.985-10.52-8.407-17.741c2.576-7.22,10.514-10.986,17.741-8.407
		c14.282,5.099,28.682,10.943,42.803,17.373c59.076,26.897,110.182,62.441,143.905,100.086
		c36.376,40.605,48.769,79.745,34.897,110.211C469.757,389.524,433.334,405.633,381.267,405.633z"/>
	<path style="fill:#507C5C;" d="M256,505.871c-33.474,0-63.961-27.498-85.842-77.43c-20.287-46.29-31.459-107.531-31.459-172.442
		s11.172-126.152,31.459-172.442C192.04,33.626,222.526,6.129,256,6.129c28.596,0,54.762,19.683,75.673,56.918
		c3.755,6.684,1.378,15.146-5.306,18.9c-6.681,3.756-15.148,1.38-18.9-5.306c-15.481-27.566-33.759-42.749-51.467-42.749
		c-21.458,0-43.478,22.165-60.413,60.81C176.807,137.557,166.464,194.841,166.464,256s10.343,118.443,29.124,161.297
		c16.936,38.645,38.956,60.81,60.413,60.81c18.918,0,34.417-16.776,44.09-30.851c10.518-15.303,19.944-35.922,27.258-59.623
		c2.263-7.325,10.031-11.426,17.359-9.17c7.325,2.261,11.43,10.034,9.17,17.359c-8.249,26.726-18.647,49.322-30.908,67.161
		C303.689,491.04,280.53,505.871,256,505.871z"/>
</g>
<circle style="fill:#FFFFFF;" cx="255.993" cy="255.993" r="40.313"/>
<path style="fill:#507C5C;" d="M256,310.193c-29.882,0-54.193-24.311-54.193-54.193s24.311-54.193,54.193-54.193
	s54.193,24.311,54.193,54.193S285.882,310.193,256,310.193z M256,229.571c-14.573,0-26.429,11.856-26.429,26.429
	c0,14.573,11.856,26.429,26.429,26.429c14.573,0,26.429-11.856,26.429-26.429C282.429,241.427,270.573,229.571,256,229.571z"/>
<circle style="fill:#CFF09E;" cx="468.453" cy="352.61" r="29.668"/>
<path style="fill:#507C5C;" d="M468.45,396.161c-24.014,0-43.55-19.537-43.55-43.551s19.536-43.55,43.55-43.55
	c24.014,0,43.55,19.536,43.55,43.55S492.464,396.161,468.45,396.161z M468.45,336.824c-8.705,0-15.786,7.082-15.786,15.786
	c0,8.705,7.082,15.788,15.786,15.788c8.704,0,15.786-7.082,15.786-15.788C484.237,343.905,477.155,336.824,468.45,336.824z"/>
<circle style="fill:#CFF09E;" cx="43.55" cy="159.39" r="29.668"/>
<path style="fill:#507C5C;" d="M43.55,202.94C19.536,202.94,0,183.404,0,159.39s19.536-43.551,43.55-43.551
	s43.551,19.537,43.551,43.551S67.564,202.94,43.55,202.94z M43.55,143.602c-8.705,0-15.786,7.082-15.786,15.788
	c0,8.705,7.082,15.786,15.786,15.786c8.705,0,15.788-7.082,15.788-15.786C59.337,150.685,52.255,143.602,43.55,143.602z"/>
<g>
</g>
<g>
</g>
<g>
</g>
<g>
</g>
<g>
</g>
<g>
</g>
<g>
</g>
<g>
</g>
<g>
</g>
<g>
</g>
<g>
</g>
<g>
</g>
<g>
</g>
<g>
</g>
<g>
</g>
</svg>
