<?xml version="1.0" encoding="iso-8859-1"?>
<!-- Generator: Adobe Illustrator 19.0.0, SVG Export Plug-In . SVG Version: 6.00 Build 0)  -->
<svg xmlns="http://www.w3.org/2000/svg" xmlns:xlink="http://www.w3.org/1999/xlink" version="1.1" id="Capa_1" x="0px" y="0px" viewBox="0 0 463 463" style="enable-background:new 0 0 463 463;" xml:space="preserve" width="512px" height="512px">
<g>
	<path d="M407.5,88h-352c-4.143,0-7.5,3.358-7.5,7.5v272c0,4.142,3.357,7.5,7.5,7.5h352c4.143,0,7.5-3.358,7.5-7.5v-272   C415,91.358,411.643,88,407.5,88z M400,360H63V103h337V360z" fill="#FFFFFF"/>
	<path d="M455.5,392H447V79.5c0-12.958-10.542-23.5-23.5-23.5h-384C26.542,56,16,66.542,16,79.5V392H7.5c-4.143,0-7.5,3.358-7.5,7.5   s3.357,7.5,7.5,7.5h448c4.143,0,7.5-3.358,7.5-7.5S459.643,392,455.5,392z M31,79.5c0-4.687,3.813-8.5,8.5-8.5h384   c4.687,0,8.5,3.813,8.5,8.5V392H31V79.5z" fill="#FFFFFF"/>
	<path d="M215.5,288c4.143,0,7.5-3.358,7.5-7.5v-40c0-4.687,3.813-8.5,8.5-8.5s8.5,3.813,8.5,8.5v40c0,4.142,3.357,7.5,7.5,7.5   s7.5-3.358,7.5-7.5v-40c0-4.687,3.813-8.5,8.5-8.5s8.5,3.813,8.5,8.5v40c0,4.142,3.357,7.5,7.5,7.5s7.5-3.358,7.5-7.5v-40   c0-12.958-10.542-23.5-23.5-23.5c-6.177,0-11.801,2.399-16,6.31c-4.199-3.911-9.823-6.31-16-6.31c-3.755,0-7.304,0.89-10.455,2.462   C219.673,217.953,217.7,217,215.5,217c-4.143,0-7.5,3.358-7.5,7.5v56C208,284.642,211.357,288,215.5,288z" fill="#FFFFFF"/>
	<path d="M95.5,288h48c4.143,0,7.5-3.358,7.5-7.5s-3.357-7.5-7.5-7.5H103v-33h24.5c4.143,0,7.5-3.358,7.5-7.5s-3.357-7.5-7.5-7.5   H103v-33h40.5c4.143,0,7.5-3.358,7.5-7.5s-3.357-7.5-7.5-7.5h-48c-4.143,0-7.5,3.358-7.5,7.5v96C88,284.642,91.357,288,95.5,288z" fill="#FFFFFF"/>
	<path d="M167.5,240h16c4.143,0,7.5-3.358,7.5-7.5s-3.357-7.5-7.5-7.5h-16c-4.143,0-7.5,3.358-7.5,7.5S163.357,240,167.5,240z" fill="#FFFFFF"/>
	<path d="M167.5,272h16c4.143,0,7.5-3.358,7.5-7.5s-3.357-7.5-7.5-7.5h-16c-4.143,0-7.5,3.358-7.5,7.5S163.357,272,167.5,272z" fill="#FFFFFF"/>
	<path d="M327.5,288c8.479,0,16.434-3.749,22.401-10.556c2.73-3.115,2.419-7.853-0.695-10.583   c-3.115-2.731-7.854-2.419-10.584,0.696c-3.078,3.51-7.027,5.444-11.122,5.444c-9.098,0-16.5-9.196-16.5-20.5s7.402-20.5,16.5-20.5   c4.095,0,8.044,1.934,11.122,5.444c2.73,3.115,7.469,3.427,10.584,0.696c3.114-2.73,3.426-7.469,0.695-10.583   C343.934,220.749,335.979,217,327.5,217c-17.369,0-31.5,15.925-31.5,35.5S310.131,288,327.5,288z" fill="#FFFFFF"/>
	<path d="M343.5,216h28c4.143,0,7.5-3.358,7.5-7.5s-3.357-7.5-7.5-7.5H351v-4.5c0-2.481,2.019-4.5,4.5-4.5h4   c10.752,0,19.5-8.748,19.5-19.5s-8.748-19.5-19.5-19.5h-8c-8.547,0-15.5,6.953-15.5,15.5c0,4.142,3.357,7.5,7.5,7.5   s7.5-3.358,7.5-7.5c0-0.276,0.225-0.5,0.5-0.5h8c2.481,0,4.5,2.019,4.5,4.5s-2.019,4.5-4.5,4.5h-4c-10.752,0-19.5,8.748-19.5,19.5   v12C336,212.642,339.357,216,343.5,216z" fill="#FFFFFF"/>
</g>
<g>
</g>
<g>
</g>
<g>
</g>
<g>
</g>
<g>
</g>
<g>
</g>
<g>
</g>
<g>
</g>
<g>
</g>
<g>
</g>
<g>
</g>
<g>
</g>
<g>
</g>
<g>
</g>
<g>
</g>
</svg>
