<?xml version="1.0" encoding="iso-8859-1"?>
<!-- Generator: Adobe Illustrator 19.0.0, SVG Export Plug-In . SVG Version: 6.00 Build 0)  -->
<svg xmlns="http://www.w3.org/2000/svg" xmlns:xlink="http://www.w3.org/1999/xlink" version="1.1" id="Capa_1" x="0px" y="0px" viewBox="0 0 511 511" style="enable-background:new 0 0 511 511;" xml:space="preserve" width="512px" height="512px">
<g>
	<path d="M423.5,168c-2.298,0-4.548,0.041-6.764,0.11c-0.403-0.067-0.814-0.11-1.236-0.11h-208c-4.142,0-7.5,3.358-7.5,7.5   s3.358,7.5,7.5,7.5h147.295C324.163,199.797,312,228.248,312,255.5c0,25.346,9.557,46.881,27.637,62.278   c4.524,3.852,9.522,7.247,14.944,10.222H207.5c-4.142,0-7.5,3.358-7.5,7.5s3.358,7.5,7.5,7.5h208c0.411,0,0.812-0.042,1.205-0.106   c2.234,0.069,4.497,0.106,6.795,0.106c48.248,0,87.5-39.252,87.5-87.5S471.748,168,423.5,168z M423.5,328   c-31.876,0-57.512-7.483-74.137-21.642C334.733,293.9,327,276.313,327,255.5c0-45.397,36.075-72.5,96.5-72.5   c39.977,0,72.5,32.523,72.5,72.5S463.477,328,423.5,328z" fill="#FFFFFF"/>
	<path d="M167.5,183h7.997c4.142,0,7.5-3.358,7.5-7.5s-3.358-7.5-7.5-7.5H167.5c-4.142,0-7.5,3.358-7.5,7.5S163.358,183,167.5,183z" fill="#FFFFFF"/>
	<path d="M175.497,328H167.5c-4.142,0-7.5,3.358-7.5,7.5s3.358,7.5,7.5,7.5h7.997c4.142,0,7.5-3.358,7.5-7.5   S179.639,328,175.497,328z" fill="#FFFFFF"/>
	<path d="M295,255.5c0-4.142-3.358-7.5-7.5-7.5H7.5c-4.142,0-7.5,3.358-7.5,7.5s3.358,7.5,7.5,7.5h280   C291.642,263,295,259.642,295,255.5z" fill="#FFFFFF"/>
	<path d="M87.5,223h16.003c4.142,0,7.5-3.358,7.5-7.5s-3.358-7.5-7.5-7.5H87.5c-4.142,0-7.5,3.358-7.5,7.5S83.358,223,87.5,223z" fill="#FFFFFF"/>
	<path d="M135.498,223H303.5c4.142,0,7.5-3.358,7.5-7.5s-3.358-7.5-7.5-7.5H135.498c-4.142,0-7.5,3.358-7.5,7.5   S131.355,223,135.498,223z" fill="#FFFFFF"/>
	<path d="M103.503,288H87.5c-4.142,0-7.5,3.358-7.5,7.5s3.358,7.5,7.5,7.5h16.003c4.142,0,7.5-3.358,7.5-7.5   S107.646,288,103.503,288z" fill="#FFFFFF"/>
	<path d="M311,295.5c0-4.142-3.358-7.5-7.5-7.5H135.498c-4.142,0-7.5,3.358-7.5,7.5s3.358,7.5,7.5,7.5H303.5   C307.642,303,311,299.642,311,295.5z" fill="#FFFFFF"/>
	<path d="M423.5,200c-4.142,0-7.5,3.358-7.5,7.5s3.358,7.5,7.5,7.5c22.332,0,40.5,18.168,40.5,40.5c0,4.142,3.358,7.5,7.5,7.5   s7.5-3.358,7.5-7.5C479,224.897,454.103,200,423.5,200z" fill="#FFFFFF"/>
</g>
<g>
</g>
<g>
</g>
<g>
</g>
<g>
</g>
<g>
</g>
<g>
</g>
<g>
</g>
<g>
</g>
<g>
</g>
<g>
</g>
<g>
</g>
<g>
</g>
<g>
</g>
<g>
</g>
<g>
</g>
</svg>
