<?xml version="1.0" encoding="iso-8859-1"?>
<!-- Generator: Adobe Illustrator 19.0.0, SVG Export Plug-In . SVG Version: 6.00 Build 0)  -->
<svg xmlns="http://www.w3.org/2000/svg" xmlns:xlink="http://www.w3.org/1999/xlink" version="1.1" id="Layer_1" x="0px" y="0px" viewBox="0 0 512 512" style="enable-background:new 0 0 512 512;" xml:space="preserve" width="512px" height="512px">
<g>
	<g>
		<g>
			<path d="M420.932,99.601c2.185,0,4.369-0.836,6.033-2.5l18.876-18.876c4.471,2.97,9.523,5.137,14.959,6.246v214.195     c0,4.71,3.814,8.533,8.533,8.533s8.533-3.823,8.533-8.533V84.471C497.314,80.503,512,63.275,512,42.667     C512,19.14,492.86,0,469.333,0c-23.526,0-42.667,19.14-42.667,42.667c0,8.687,2.637,16.742,7.108,23.492l-18.876,18.876     c-3.337,3.328-3.337,8.73,0,12.066C416.563,98.765,418.748,99.601,420.932,99.601z M469.333,17.067     c14.114,0,25.6,11.486,25.6,25.6s-11.486,25.6-25.6,25.6s-25.6-11.486-25.6-25.6S455.219,17.067,469.333,17.067z" fill="#FFFFFF"/>
			<path d="M469.333,324.267c-23.526,0-42.667,19.14-42.667,42.667c0,8.687,2.637,16.742,7.108,23.492l-27.81,27.81     c-3.328,3.328-3.328,8.73,0,12.066c1.672,1.664,3.849,2.5,6.033,2.5c2.185,0,4.369-0.836,6.033-2.5l27.81-27.81     c6.741,4.471,14.805,7.108,23.492,7.108c23.526,0,42.667-19.14,42.667-42.667S492.86,324.267,469.333,324.267z M469.333,392.533     c-14.114,0-25.6-11.486-25.6-25.6s11.486-25.6,25.6-25.6s25.6,11.486,25.6,25.6S483.448,392.533,469.333,392.533z" fill="#FFFFFF"/>
			<path d="M34.133,186.871v214.195c0,4.71,3.814,8.533,8.533,8.533s8.533-3.823,8.533-8.533V186.871     c19.447-3.968,34.133-21.197,34.133-41.805c0-23.526-19.14-42.667-42.667-42.667C19.14,102.4,0,121.54,0,145.067     C0,165.675,14.686,182.904,34.133,186.871z M42.667,119.467c14.114,0,25.6,11.486,25.6,25.6s-11.486,25.6-25.6,25.6     s-25.6-11.486-25.6-25.6S28.553,119.467,42.667,119.467z" fill="#FFFFFF"/>
			<path d="M375.467,427.529v-52.062h25.071c4.71,0,8.533-3.823,8.533-8.533s-3.823-8.533-8.533-8.533h-25.071V213.333     c0-4.71-3.814-8.533-8.533-8.533s-8.533,3.823-8.533,8.533V358.4H169.796c-3.951-19.447-21.197-34.133-41.796-34.133     c-23.526,0-42.667,19.14-42.667,42.667c0,8.687,2.637,16.742,7.108,23.492l-19.277,19.277c-3.328,3.328-3.328,8.73,0,12.066     c1.673,1.664,3.849,2.5,6.033,2.5c2.185,0,4.369-0.836,6.033-2.5l19.277-19.277c6.741,4.471,14.805,7.108,23.492,7.108     c20.599,0,37.845-14.686,41.796-34.133H358.4v52.062c-19.447,3.968-34.133,21.197-34.133,41.805     c0,23.526,19.14,42.667,42.667,42.667s42.667-19.14,42.667-42.667C409.6,448.725,394.914,431.497,375.467,427.529z M128,392.533     c-14.114,0-25.6-11.486-25.6-25.6s11.486-25.6,25.6-25.6s25.6,11.486,25.6,25.6S142.114,392.533,128,392.533z M366.933,494.933     c-14.114,0-25.6-11.486-25.6-25.6s11.486-25.6,25.6-25.6s25.6,11.486,25.6,25.6S381.047,494.933,366.933,494.933z" fill="#FFFFFF"/>
			<path d="M298.667,460.8H84.463c-3.951-19.448-21.197-34.133-41.796-34.133C19.14,426.667,0,445.807,0,469.333     C0,492.86,19.14,512,42.667,512c20.599,0,37.845-14.686,41.796-34.133h214.204c4.719,0,8.533-3.823,8.533-8.533     S303.386,460.8,298.667,460.8z M42.667,494.933c-14.114,0-25.6-11.486-25.6-25.6s11.486-25.6,25.6-25.6s25.6,11.486,25.6,25.6     S56.781,494.933,42.667,494.933z" fill="#FFFFFF"/>
			<path d="M79.198,100.002c2.185,0,4.369-0.836,6.033-2.5l19.277-19.277c4.471,2.97,9.523,5.137,14.959,6.246v52.062h-8.533     c-4.719,0-8.533,3.823-8.533,8.533c0,4.71,3.814,8.533,8.533,8.533h8.533v142.933c0,4.71,3.814,8.533,8.533,8.533     s8.533-3.823,8.533-8.533V153.6h188.604c3.951,19.447,21.197,34.133,41.796,34.133c23.526,0,42.667-19.14,42.667-42.667     c0-23.526-19.14-42.667-42.667-42.667c-20.599,0-37.845,14.686-41.796,34.133H136.533V84.471     c16.691-3.405,29.867-16.58,33.263-33.271h231.27c4.719,0,8.533-3.823,8.533-8.533c0-4.71-3.814-8.533-8.533-8.533h-231.27     C165.845,14.686,148.599,0,128,0c-23.526,0-42.667,19.14-42.667,42.667c0,8.687,2.637,16.742,7.108,23.492L73.165,85.436     c-3.328,3.328-3.328,8.73,0,12.066C74.837,99.166,77.013,100.002,79.198,100.002z M366.933,119.467     c14.114,0,25.6,11.486,25.6,25.6s-11.486,25.6-25.6,25.6s-25.6-11.486-25.6-25.6S352.819,119.467,366.933,119.467z M128,17.067     c14.114,0,25.6,11.486,25.6,25.6s-11.486,25.6-25.6,25.6s-25.6-11.486-25.6-25.6S113.886,17.067,128,17.067z" fill="#FFFFFF"/>
		</g>
	</g>
</g>
<g>
</g>
<g>
</g>
<g>
</g>
<g>
</g>
<g>
</g>
<g>
</g>
<g>
</g>
<g>
</g>
<g>
</g>
<g>
</g>
<g>
</g>
<g>
</g>
<g>
</g>
<g>
</g>
<g>
</g>
</svg>
