<?xml version="1.0" encoding="iso-8859-1"?>
<!-- Generator: Adobe Illustrator 19.0.0, SVG Export Plug-In . SVG Version: 6.00 Build 0)  -->
<svg xmlns="http://www.w3.org/2000/svg" xmlns:xlink="http://www.w3.org/1999/xlink" version="1.1" id="Capa_1" x="0px" y="0px" viewBox="0 0 341.031 341.031" style="enable-background:new 0 0 341.031 341.031;" xml:space="preserve" width="512px" height="512px">
<path d="M311.031,66.293c-14.255,0-26.212,9.998-29.248,23.348L144.878,108.24c-5.477-5.841-13.254-9.501-21.875-9.501  c-6.11,0-11.796,1.84-16.541,4.989L69.255,66.519c2.643-4.467,4.166-9.671,4.166-15.226c0-16.542-13.458-30-30-30s-30,13.458-30,30  s13.458,30,30,30c5.556,0,10.76-1.524,15.227-4.167l37.759,37.76c-2.169,4.147-3.403,8.857-3.403,13.853  c0,10.246,5.166,19.304,13.027,24.719L40.693,261.715c-3.324-1.273-6.927-1.977-10.693-1.977c-16.542,0-30,13.458-30,30  s13.458,30,30,30s30-13.458,30-30c0-7.344-2.657-14.076-7.054-19.297l67.488-111.82c0.848,0.072,1.704,0.118,2.57,0.118  c4.996,0,9.706-1.234,13.854-3.403l95.764,95.764c-2.989,4.664-4.73,10.2-4.73,16.138c0,16.542,13.458,30,30,30s30-13.458,30-30  s-13.458-30-30-30c-5.17,0-10.039,1.315-14.29,3.627l-95.585-95.586c3.149-4.745,4.989-10.431,4.989-16.541  c0-2.187-0.241-4.317-0.688-6.372l129.927-17.651c3.65,12.453,15.17,21.577,28.788,21.577c16.542,0,30-13.458,30-30  S327.573,66.293,311.031,66.293z M30,304.738c-8.271,0-15-6.729-15-15s6.729-15,15-15s15,6.729,15,15S38.271,304.738,30,304.738z   M123.004,113.739c8.271,0,15,6.729,15,15s-6.729,15-15,15s-15-6.729-15-15S114.732,113.739,123.004,113.739z M43.421,66.293  c-8.271,0-15-6.729-15-15s6.729-15,15-15s15,6.729,15,15S51.692,66.293,43.421,66.293z M272.891,267.238c0,8.271-6.729,15-15,15  s-15-6.729-15-15s6.729-15,15-15S272.891,258.967,272.891,267.238z M311.031,111.293c-8.271,0-15-6.729-15-15s6.729-15,15-15  s15,6.729,15,15S319.303,111.293,311.031,111.293z" fill="#FFFFFF"/>
<g>
</g>
<g>
</g>
<g>
</g>
<g>
</g>
<g>
</g>
<g>
</g>
<g>
</g>
<g>
</g>
<g>
</g>
<g>
</g>
<g>
</g>
<g>
</g>
<g>
</g>
<g>
</g>
<g>
</g>
</svg>
