<?xml version="1.0" encoding="iso-8859-1"?>
<!-- Generator: Adobe Illustrator 19.1.0, SVG Export Plug-In . SVG Version: 6.00 Build 0)  -->
<svg xmlns="http://www.w3.org/2000/svg" xmlns:xlink="http://www.w3.org/1999/xlink" version="1.1" id="Capa_1" x="0px" y="0px" viewBox="0 0 289.743 289.743" style="enable-background:new 0 0 289.743 289.743;" xml:space="preserve" width="512px" height="512px">
<g>
	<path d="M145.473,165.441c-31.388,0-60.362,4.225-83.903,10.865V73.087l59.155-29.577c1.811-1.207,3.622-3.018,3.622-5.433   c0-2.414-1.207-4.225-3.622-5.433L57.948,1.256c-1.811-1.207-4.225-0.604-6.036,0c-1.811,1.207-3.018,3.018-3.018,5.433v1.207   v60.966v112.274C18.712,192.604,0,208.902,0,227.614c0,34.407,63.38,61.57,144.869,61.57s144.869-27.163,144.869-61.57   C290.342,192.604,226.962,165.441,145.473,165.441z M61.57,59.807V16.95l42.857,21.73L61.57,59.807z M145.473,276.508   c-79.678,0-132.797-25.352-132.797-49.497c0-12.072,13.28-24.145,36.821-33.803v21.73c-6.64,3.622-10.865,9.658-10.865,16.298   c0,12.072,14.487,21.127,32.596,21.127s32.596-9.054,32.596-21.127c0-12.072-14.487-21.127-32.596-21.127   c-3.018,0-6.036,0.604-9.054,1.207v-21.73c22.334-7.244,50.704-11.469,83.903-11.469c79.678,0,132.797,25.352,132.797,49.497   C278.27,251.156,225.151,276.508,145.473,276.508z M61.57,223.389c2.414-0.604,6.036-1.207,9.054-1.207   c12.072,0,20.523,5.433,20.523,9.054s-7.847,9.054-20.523,9.054c-4.829,0-9.054-0.604-12.676-2.414   c1.811-1.207,3.018-3.018,3.018-5.433v-9.054H61.57z" fill="#FFFFFF"/>
</g>
<g>
</g>
<g>
</g>
<g>
</g>
<g>
</g>
<g>
</g>
<g>
</g>
<g>
</g>
<g>
</g>
<g>
</g>
<g>
</g>
<g>
</g>
<g>
</g>
<g>
</g>
<g>
</g>
<g>
</g>
</svg>
