<?xml version="1.0" encoding="iso-8859-1"?>
<!-- Generator: Adobe Illustrator 19.0.0, SVG Export Plug-In . SVG Version: 6.00 Build 0)  -->
<svg version="1.1" id="Capa_1" xmlns="http://www.w3.org/2000/svg" xmlns:xlink="http://www.w3.org/1999/xlink" x="0px" y="0px"
	 viewBox="0 0 461.806 461.806" style="enable-background:new 0 0 461.806 461.806;" xml:space="preserve">
<g>
	<path d="M230.903,257.272c26.191,0,47.5-21.309,47.5-47.5s-21.309-47.5-47.5-47.5s-47.5,21.309-47.5,47.5
		S204.712,257.272,230.903,257.272z M230.903,177.272c17.921,0,32.5,14.579,32.5,32.5s-14.579,32.5-32.5,32.5
		s-32.5-14.579-32.5-32.5S212.982,177.272,230.903,177.272z"/>
	<path d="M167.388,198.494c2.41-13.633,9.37-26.378,19.597-35.889c8.165-7.592,9.63-20.041,3.484-29.602L125.132,31.368
		c-3.544-5.513-9.284-9.331-15.747-10.476c-6.411-1.136-13.057,0.459-18.224,4.378C38.233,65.407,5.029,126.238,0.064,192.161
		c-0.482,6.407,1.764,12.802,6.163,17.546c4.459,4.808,10.772,7.564,17.321,7.564h120.83
		C155.788,217.272,165.465,209.374,167.388,198.494z M17.226,199.506c-1.594-1.718-2.376-3.927-2.204-6.218
		c4.643-61.641,35.698-118.524,85.204-156.066c1.467-1.112,3.211-1.693,5.024-1.693c0.503,0,1.011,0.044,1.519,0.135
		c2.396,0.424,4.437,1.779,5.746,3.816l65.337,101.636c2.179,3.39,1.714,7.906-1.082,10.506
		c-12.601,11.718-21.178,27.437-24.153,44.262c-0.644,3.643-4.185,6.389-8.237,6.389H23.549
		C21.16,202.272,18.855,201.264,17.226,199.506z"/>
	<path d="M461.742,192.161c-4.965-65.924-38.169-126.754-91.097-166.891c-5.167-3.918-11.807-5.514-18.224-4.378
		c-6.463,1.145-12.203,4.963-15.747,10.476l-65.337,101.636c-6.146,9.561-4.681,22.01,3.484,29.602
		c10.227,9.511,17.187,22.256,19.597,35.889c1.923,10.88,11.6,18.777,23.009,18.777h120.83c6.549,0,12.862-2.757,17.321-7.564
		C459.978,204.963,462.225,198.569,461.742,192.161z M444.581,199.506c-1.63,1.758-3.935,2.766-6.323,2.766h-120.83
		c-4.053,0-7.594-2.746-8.237-6.389c-2.976-16.825-11.553-32.544-24.153-44.262c-2.796-2.6-3.261-7.116-1.082-10.506L349.292,39.48
		c1.31-2.037,3.351-3.393,5.746-3.816c2.344-0.417,4.67,0.139,6.543,1.559c49.506,37.542,80.562,94.426,85.204,156.066
		C446.957,195.579,446.175,197.788,444.581,199.506z"/>
	<path d="M283.967,278.446c-6.145-9.56-18.119-13.375-28.468-9.074c-7.819,3.252-16.095,4.9-24.596,4.9s-16.776-1.648-24.597-4.901
		c-10.346-4.299-22.32-0.486-28.467,9.075l-65.35,101.656c-3.541,5.508-4.637,12.309-3.005,18.658
		c1.614,6.279,5.792,11.642,11.46,14.711c33.594,18.188,71.616,27.801,109.958,27.801s76.364-9.613,109.957-27.801
		c5.669-3.069,9.847-8.432,11.461-14.711c1.632-6.35,0.536-13.15-3.005-18.658L283.967,278.446z M337.793,395.026
		c-0.587,2.284-2.033,4.149-4.074,5.254c-31.406,17.004-66.96,25.992-102.815,25.992s-71.409-8.988-102.816-25.992
		c-2.04-1.104-3.486-2.97-4.073-5.254c-0.605-2.354-0.217-4.773,1.094-6.813l65.35-101.656c1.616-2.513,4.313-3.939,7.064-3.939
		c1.019,0,2.045,0.195,3.026,0.604c9.654,4.015,19.867,6.051,30.355,6.051s20.701-2.036,30.354-6.05
		c3.635-1.509,7.878-0.108,10.092,3.335l65.35,101.656C338.01,390.252,338.398,392.671,337.793,395.026z"/>
	<path d="M107.953,63.823c-2.239-3.485-6.882-4.494-10.364-2.253c-3.484,2.239-4.493,6.88-2.253,10.364l14.067,21.883
		c1.433,2.229,3.849,3.445,6.315,3.445c1.389,0,2.794-0.386,4.049-1.192c3.484-2.239,4.493-6.88,2.253-10.364L107.953,63.823z"/>
	<path d="M150.514,151.388c1.389,0,2.794-0.386,4.049-1.192c3.484-2.239,4.493-6.88,2.253-10.364l-15.591-24.253
		c-2.239-3.485-6.881-4.494-10.364-2.253c-3.484,2.239-4.493,6.88-2.253,10.364l15.591,24.253
		C145.631,150.172,148.047,151.388,150.514,151.388z"/>
	<path d="M398.556,101.703c-2.247-3.479-6.889-4.475-10.369-2.231c-3.479,2.248-4.479,6.891-2.231,10.37
		c13.669,21.163,22.716,44.438,26.891,69.178c0.618,3.662,3.793,6.253,7.387,6.253c0.414,0,0.834-0.034,1.257-0.105
		c4.084-0.689,6.837-4.56,6.147-8.644C423.121,149.763,413.337,124.59,398.556,101.703z"/>
	<path d="M365.214,62.334c-3.061-2.788-7.804-2.571-10.596,0.492c-2.789,3.062-2.569,7.806,0.492,10.596
		c4.624,4.213,9.078,8.706,13.239,13.354c1.481,1.654,3.531,2.497,5.591,2.497c1.78,0,3.568-0.631,5-1.912
		c3.086-2.764,3.348-7.505,0.585-10.591C375.026,71.745,370.212,66.889,365.214,62.334z"/>
	<path d="M263.805,306.259c-2.24-3.485-6.881-4.493-10.364-2.253c-3.484,2.239-4.493,6.88-2.253,10.364l12.52,19.475
		c1.433,2.229,3.849,3.445,6.315,3.445c1.389,0,2.794-0.386,4.049-1.192c3.484-2.239,4.493-6.88,2.253-10.364L263.805,306.259z"/>
	<path d="M293.207,351.996c-2.239-3.485-6.882-4.493-10.364-2.253c-3.484,2.239-4.493,6.88-2.253,10.364l19.457,30.267
		c1.433,2.229,3.849,3.445,6.315,3.445c1.389,0,2.794-0.386,4.049-1.192c3.484-2.239,4.493-6.88,2.253-10.364L293.207,351.996z"/>
</g>
<g>
</g>
<g>
</g>
<g>
</g>
<g>
</g>
<g>
</g>
<g>
</g>
<g>
</g>
<g>
</g>
<g>
</g>
<g>
</g>
<g>
</g>
<g>
</g>
<g>
</g>
<g>
</g>
<g>
</g>
</svg>
