<?xml version="1.0" encoding="iso-8859-1"?>
<!-- Generator: Adobe Illustrator 16.0.0, SVG Export Plug-In . SVG Version: 6.00 Build 0)  -->
<!DOCTYPE svg PUBLIC "-//W3C//DTD SVG 1.1//EN" "http://www.w3.org/Graphics/SVG/1.1/DTD/svg11.dtd">
<svg xmlns="http://www.w3.org/2000/svg" xmlns:xlink="http://www.w3.org/1999/xlink" version="1.1" id="Capa_1" x="0px" y="0px" width="512px" height="512px" viewBox="0 0 36 36" style="enable-background:new 0 0 36 36;" xml:space="preserve">
<g>
	<path d="M19.551,13.027l-1.32-4.104c0.896-0.116,1.59-0.872,1.59-1.801c0-1.005-0.813-1.821-1.821-1.821s-1.822,0.816-1.822,1.821   c0,0.929,0.692,1.685,1.59,1.801l-1.323,4.104c-5.631,0.765-9.99,5.592-9.99,11.429c0,0,0,0,0,0.001   C6.455,30.82,11.635,36,18.002,36c6.361,0,11.539-5.176,11.543-11.538c0-0.002,0-0.004,0-0.006c0-0.001,0-0.003,0-0.005   C29.541,18.615,25.182,13.79,19.551,13.027z M28.037,22.066c-1.324-0.926-3.398-1.58-5.711-1.938   c-0.359-2.314-1.012-4.387-1.939-5.711C24.162,15.316,27.139,18.293,28.037,22.066z M18,14.137c1.182,0,2.463,2.252,3.07,5.826   C20.061,19.855,19.023,19.8,18,19.8c-1.027,0-2.062,0.056-3.072,0.163C15.535,16.389,16.816,14.137,18,14.137z M18,21.023   c1.154,0,2.242,0.065,3.248,0.185c0.117,1.005,0.182,2.093,0.182,3.248s-0.062,2.242-0.182,3.248   c-1.006,0.116-2.094,0.183-3.248,0.183c-1.156,0-2.244-0.063-3.25-0.183c-0.115-1.006-0.182-2.093-0.182-3.248   s0.065-2.243,0.182-3.248C15.756,21.091,16.844,21.023,18,21.023z M15.611,14.418c-0.928,1.324-1.58,3.396-1.941,5.711   c-2.312,0.357-4.385,1.014-5.709,1.939C8.859,18.293,11.836,15.314,15.611,14.418z M13.506,21.385   c-0.107,1.01-0.162,2.047-0.162,3.071s0.055,2.062,0.162,3.069c-3.574-0.606-5.826-1.89-5.826-3.069   C7.68,23.273,9.932,21.992,13.506,21.385z M7.961,26.844c1.324,0.926,3.396,1.58,5.709,1.939c0.361,2.314,1.014,4.386,1.941,5.71   C11.836,33.596,8.859,30.618,7.961,26.844z M18,34.775c-1.184,0-2.465-2.254-3.072-5.827c1.01,0.106,2.045,0.163,3.072,0.163   c1.023,0,2.061-0.057,3.07-0.163C20.463,32.521,19.182,34.775,18,34.775z M20.387,34.493c0.928-1.324,1.58-3.396,1.939-5.71   c2.312-0.359,4.387-1.014,5.711-1.939C27.139,30.618,24.162,33.596,20.387,34.493z M28.318,24.456c0,0.001,0,0.003,0,0.004   c-0.004,1.181-2.258,2.459-5.828,3.065c0.109-1.01,0.162-2.045,0.162-3.069s-0.053-2.062-0.162-3.071   c3.572,0.607,5.824,1.887,5.828,3.068C28.318,24.454,28.318,24.455,28.318,24.456z M25.303,0.932L26.236,0   c3.562,3.561,3.562,9.354,0,12.913l-0.934-0.933C28.35,8.936,28.35,3.979,25.303,0.932z M23.691,2.544l0.932-0.933   c2.672,2.671,2.672,7.019,0,9.689l-0.932-0.934C25.848,8.212,25.848,4.701,23.691,2.544z M22.027,8.704   c1.24-1.239,1.24-3.257,0-4.497l0.932-0.932c1.756,1.754,1.756,4.607,0.002,6.36L22.027,8.704z M9.762,12.913   C6.201,9.352,6.201,3.559,9.762,0l0.932,0.932c-3.045,3.047-3.047,8.004,0,11.049L9.762,12.913z M11.373,1.611l0.934,0.933   c-2.158,2.157-2.158,5.668,0,7.824l-0.934,0.934C8.701,8.63,8.701,4.282,11.373,1.611z M13.037,3.275l0.934,0.932   c-1.24,1.24-1.24,3.258-0.002,4.497l-0.932,0.933C11.283,7.884,11.283,5.029,13.037,3.275z" fill="#FFFFFF"/>
</g>
<g>
</g>
<g>
</g>
<g>
</g>
<g>
</g>
<g>
</g>
<g>
</g>
<g>
</g>
<g>
</g>
<g>
</g>
<g>
</g>
<g>
</g>
<g>
</g>
<g>
</g>
<g>
</g>
<g>
</g>
</svg>
